<svg width="36" height="47" viewBox="0 0 36 47" fill="none" xmlns="http://www.w3.org/2000/svg" class="dark:fill-black">
  <path d="M14.888 30.448C14.888 28.9547 15.1227 27.632 15.592 26.48C16.104 25.328 16.7227 24.304 17.448 23.408C18.216 22.512 19.0267 21.68 19.88 20.912C20.7333 20.144 21.5227 19.4187 22.248 18.736C23.016 18.0107 23.6347 17.264 24.104 16.496C24.616 15.728 24.872 14.8747 24.872 13.936C24.872 12.4 24.232 11.1627 22.952 10.224C21.7147 9.28533 20.0507 8.816 17.96 8.816C15.9547 8.816 14.1627 9.24266 12.584 10.096C11.0053 10.9067 9.704 12.0587 8.68 13.552L0.936 9.008C2.64267 6.40533 5.01067 4.336 8.04 2.8C11.0693 1.22133 14.7387 0.431999 19.048 0.431999C22.248 0.431999 25.064 0.901332 27.496 1.84C29.928 2.736 31.8267 4.05866 33.192 5.808C34.6 7.55733 35.304 9.712 35.304 12.272C35.304 13.936 35.048 15.408 34.536 16.688C34.024 17.968 33.3627 19.0773 32.552 20.016C31.7413 20.9547 30.8667 21.8293 29.928 22.64C29.032 23.4507 28.1787 24.24 27.368 25.008C26.5573 25.776 25.8747 26.5867 25.32 27.44C24.808 28.2933 24.552 29.296 24.552 30.448H14.888ZM19.752 46.512C17.96 46.512 16.488 45.936 15.336 44.784C14.184 43.632 13.608 42.2667 13.608 40.688C13.608 39.0667 14.184 37.7227 15.336 36.656C16.488 35.5467 17.96 34.992 19.752 34.992C21.5867 34.992 23.0587 35.5467 24.168 36.656C25.32 37.7227 25.896 39.0667 25.896 40.688C25.896 42.2667 25.32 43.632 24.168 44.784C23.0587 45.936 21.5867 46.512 19.752 46.512Z" fill="white"/>
</svg>
