<svg width="52" height="52" xmlns="http://www.w3.org/2000/svg" viewBox="0 0 297.96 297.96" >
    <path d="M298,158.37V139.59H252.42a103.32,103.32,0,0,0-23.66-57.08L261,50.3,247.68,37,215.47,69.23a103.31,103.31,0,0,0-57.08-23.62V0H139.61V45.61A103.28,103.28,0,0,0,82.53,69.23L50.3,37,37,50.28,69.25,82.51a103.33,103.33,0,0,0-23.67,57.08H0v18.78H45.57a103.32,103.32,0,0,0,23.65,57.12L37,247.71,50.28,261l32.21-32.21a103.27,103.27,0,0,0,57.12,23.66V298h18.78V252.44a103.27,103.27,0,0,0,57.13-23.67L247.71,261,261,247.68,228.8,215.49a103.3,103.3,0,0,0,23.63-57.12ZM139.4,233.49a85.06,85.06,0,0,1,0-169Z" fill="white"/>
</svg>
